<?xml version="1.0" encoding="UTF-8" standalone="no"?>


<!-- Uploaded to: SVG Repo, www.svgrepo.com, Generator: SVG Repo Mixer Tools -->
<svg 
   xmlns:sketch="http://www.bohemiancoding.com/sketch/ns"
   xmlns:dc="http://purl.org/dc/elements/1.1/"
   xmlns:cc="http://creativecommons.org/ns#"
   xmlns:rdf="http://www.w3.org/1999/02/22-rdf-syntax-ns#"
   xmlns:svg="http://www.w3.org/2000/svg"
   xmlns="http://www.w3.org/2000/svg"
   xmlns:sodipodi="http://sodipodi.sourceforge.net/DTD/sodipodi-0.dtd"
   xmlns:inkscape="http://www.inkscape.org/namespaces/inkscape"
   version="1.1"
   id="Layer_1"
   x="0px"
   y="0px"
   width="800px"
   height="800px"
   viewBox="0 0 750 471"
   enable-background="new 0 0 750 471"
   xml:space="preserve"
   sodipodi:docname="visa.svg"
   inkscape:version="0.92.2 5c3e80d, 2017-08-06">

<metadata
     id="metadata4882">

<rdf:RDF>

<cc:Work
         rdf:about="">

<dc:format>image/svg+xml</dc:format>

<dc:type
           rdf:resource="http://purl.org/dc/dcmitype/StillImage" />

</cc:Work>

</rdf:RDF>

</metadata>

<defs
     id="defs4880" />

<sodipodi:namedview
     pagecolor="#ffffff"
     bordercolor="#666666"
     borderopacity="1"
     objecttolerance="10"
     gridtolerance="10"
     guidetolerance="10"
     inkscape:pageopacity="0"
     inkscape:pageshadow="2"
     inkscape:window-width="1428"
     inkscape:window-height="869"
     id="namedview4878"
     showgrid="false"
     inkscape:zoom="0.384"
     inkscape:cx="83.333333"
     inkscape:cy="235.5"
     inkscape:window-x="164"
     inkscape:window-y="478"
     inkscape:window-maximized="0"
     inkscape:current-layer="Layer_1" />

<title
     id="title4867">Slice 1</title>

<desc
     id="desc4869">Created with Sketch.</desc>

<g
     id="visa"
     sketch:type="MSLayerGroup">

<path d="M253.509 175.921L219.303 335.84H177.929L212.138 175.921H253.509ZM427.568 279.182L449.343 219.13L461.874 279.182H427.568ZM473.744 335.84H512L478.578 175.921H443.29C435.337 175.921 428.632 180.532 425.665 187.643L363.587 335.84H407.037L415.662 311.957H468.734L473.744 335.84ZM365.742 283.632C365.921 241.426 307.397 239.088 307.789 220.23C307.915 214.5 313.382 208.397 325.331 206.836C331.255 206.073 347.603 205.454 366.134 213.993L373.381 180.068C363.429 176.467 350.62 173 334.683 173C293.783 173 265.012 194.725 264.782 225.859C264.519 248.883 285.334 261.72 300.984 269.388C317.119 277.226 322.525 282.251 322.446 289.254C322.335 299.983 309.58 304.734 297.704 304.914C276.892 305.238 264.828 299.289 255.214 294.807L247.704 329.866C257.387 334.297 275.227 338.153 293.7 338.351C337.183 338.351 365.612 316.881 365.742 283.632ZM194.391 175.921L127.357 335.84H83.6302L50.64 208.213C48.6401 200.365 46.8957 197.48 40.8134 194.164C30.8645 188.761 14.4413 183.708 0 180.564L0.978353 175.921H71.3758C80.3427 175.921 88.4104 181.888 90.4642 192.218L107.891 284.765L150.927 175.921H194.391Z" fill="#1434CB"></path>

</g>

</svg>